<?xml version="1.0" encoding="utf-8"?>
<!-- Svg Vector Icons : http://www.onlinewebfonts.com/icon -->
<!DOCTYPE svg PUBLIC "-//W3C//DTD SVG 1.1//EN" "http://www.w3.org/Graphics/SVG/1.1/DTD/svg11.dtd">
<svg version="1.1" xmlns="http://www.w3.org/2000/svg" xmlns:xlink="http://www.w3.org/1999/xlink" x="0px" y="0px" viewBox="0 0 256 256" enable-background="new 0 0 256 256" xml:space="preserve">
<metadata> Svg Vector Icons : http://www.onlinewebfonts.com/icon </metadata>
<g><g><g><path fill="#000000" d="M112.8,53.2L66.2,87.1l-21.5,0.1c-25,0-25.2,0.1-30,4.8c-4.9,4.9-4.8,4.1-4.6,37.4c0.2,26.5,0.2,28.9,1.2,30.6c1.8,3.2,5.1,6.4,8,7.8c2.8,1.4,3.1,1.4,23.2,1.4H63l47.9,33.8l48,33.8l2.9-0.1c5.5-0.1,11-4,13.7-9.8l1.5-3.2v-95.3c0-92.3-0.1-95.4-1.1-98c-2.1-5.5-8.2-10.3-13.8-10.9l-2.7-0.2L112.8,53.2z M65.4,96.7l1.4,1.1v28.9v28.9l-1.4,1.1c-1.8,1.4-2.7,1.4-4.3-0.3l-1.4-1.4v-28.3V98.4l1.4-1.4C62.7,95.4,63.6,95.3,65.4,96.7z"/><path fill="#000000" d="M214.8,50.9c-2,0.9-3.6,3.4-3.6,5.8c0,1.8,0.8,3.4,3.8,8.3c11.8,18.8,17.7,39.3,17.7,61.6c0,17.6-3.6,33-11.7,50.1c-4.2,8.8-4.3,10.2-1.2,13.2c1.4,1.4,2.2,1.6,4.5,1.6c3.6,0,5-1.4,8.2-7.6c17.9-35.7,18.1-78.2,0.6-113.8c-3.7-7.5-9.5-17-11.2-18.4C220.6,50.6,216.4,50.2,214.8,50.9z"/><path fill="#000000" d="M197.2,69.2c-3.7,2.1-4.1,6.1-1.1,10.9c5.5,8.8,10,19.4,12.1,29.6c1.4,6.8,1.4,23.2-0.1,30.2c-1.4,6.4-4.3,15-7.2,20.7c-2.9,5.8-3,8.3-0.3,11c1.6,1.6,2.3,1.9,4.5,1.9c1.7,0,3-0.4,4-1.2c2.9-2.3,8.2-14.5,10.7-24.5c2.2-8.6,2.8-13.9,2.8-23.2c0-12.2-1.9-22.9-6.1-33.6c-3.3-8.7-9.7-20-12.3-21.8C202.8,68.3,198.9,68.3,197.2,69.2z"/></g></g></g>
</svg>