<?xml version="1.0" encoding="utf-8"?>
<!-- Svg Vector Icons : http://www.onlinewebfonts.com/icon -->
<!DOCTYPE svg PUBLIC "-//W3C//DTD SVG 1.1//EN" "http://www.w3.org/Graphics/SVG/1.1/DTD/svg11.dtd">
<svg version="1.1" xmlns="http://www.w3.org/2000/svg" xmlns:xlink="http://www.w3.org/1999/xlink" x="0px" y="0px" viewBox="0 0 256 256" enable-background="new 0 0 256 256" xml:space="preserve">
<metadata> Svg Vector Icons : http://www.onlinewebfonts.com/icon </metadata>
<g><g><g><path fill="#000000" d="M125.1,17.1c-4.1,1-7.7,3.4-9.8,6.3c-3,4.5-3.1,5.2-3.1,40.5v32.2H96.8c-15.1,0-15.5,0.1-16.6,1.1c-0.8,0.8-1,1.5-0.8,2.5c0.4,2,45.8,80.4,47.1,81.3c2,1.3,3.4,0.3,6.2-4.3c2.4-3.9,24-41.5,38.3-66.4c3.2-5.6,5.8-10.6,5.8-11.1c0-0.6-0.5-1.5-1-2c-1-1-1.7-1-16.5-1h-15.4l-0.2-33.7l-0.2-33.7l-1.3-2.6c-1.6-3.3-4.4-6-7.5-7.5C132.2,17.4,127.2,16.6,125.1,17.1z"/><path fill="#000000" d="M16.7,162.7c-2.9,1.6-5.6,4.9-6.2,8.1c-0.4,1.8-0.6,9-0.4,22.6c0.2,17.3,0.4,20.3,1.2,22.8c3.5,10.8,11.4,18.6,22.1,21.9c3,0.9,7.3,0.9,94.7,0.9c87.4,0,91.7-0.1,94.7-0.9c10.7-3.3,18.6-11.1,22.1-21.9c0.8-2.5,0.9-5.5,1.2-22.8c0.2-22.6,0.1-24.1-2.9-27.5c-5.7-6.6-15.7-5.4-20,2.4c-0.7,1.4-0.9,4.3-1.1,21.9c-0.3,19.5-0.3,20.4-1.4,21.8c-0.6,0.8-1.9,1.9-2.9,2.4c-1.7,0.9-7,0.9-89.7,0.9s-88-0.1-89.7-0.9c-1-0.5-2.3-1.6-2.9-2.4c-1-1.4-1.1-2.3-1.4-21.8c-0.3-22-0.2-21.6-3.3-24.9C27.5,161.7,20.9,160.5,16.7,162.7z"/></g></g></g>
</svg>