<?xml version="1.0" encoding="utf-8"?>
<!-- Svg Vector Icons : http://www.onlinewebfonts.com/icon -->
<!DOCTYPE svg PUBLIC "-//W3C//DTD SVG 1.1//EN" "http://www.w3.org/Graphics/SVG/1.1/DTD/svg11.dtd">
<svg version="1.1" xmlns="http://www.w3.org/2000/svg" xmlns:xlink="http://www.w3.org/1999/xlink" x="0px" y="0px" viewBox="0 0 256 256" enable-background="new 0 0 256 256" xml:space="preserve">
<metadata> Svg Vector Icons : http://www.onlinewebfonts.com/icon </metadata>
<g><g><g><path fill="#000000" d="M18.8,51.7c-3.3,0.5-5.3,2.2-7.1,5.9L10,61.1v67v67l1.7,3.5c2.2,4.4,4.7,6.1,9.2,6.1c2.2,0,4.2-0.5,6.2-1.5c3-1.5,90.8-59.8,94.9-63c1.3-1,3.1-3.2,4.1-4.8l1.8-3.1l0.2,32.1c0.2,30,0.2,32.2,1.3,34.2c1.5,2.8,2.7,4.2,4.8,5.3c2.4,1.2,7.1,1.1,10.2-0.3c3.6-1.6,93.5-61.5,96.5-64.3c3-2.8,5.2-7.5,5.2-11c0-3.5-2.2-8.2-5.2-11c-2.2-2.1-91.3-61.7-95.2-63.7c-6.8-3.5-12.9-2-16.1,4c-1.3,2.5-1.3,2.8-1.5,34.7l-0.2,32.1L126,121c-1-1.7-2.8-3.9-4.1-4.8c-3.8-3-93.5-62.6-95.2-63.3C24.1,51.8,21,51.3,18.8,51.7z"/></g></g></g>
</svg>