<?xml version="1.0" encoding="utf-8"?>
<!-- Svg Vector Icons : http://www.onlinewebfonts.com/icon -->
<!DOCTYPE svg PUBLIC "-//W3C//DTD SVG 1.1//EN" "http://www.w3.org/Graphics/SVG/1.1/DTD/svg11.dtd">
<svg version="1.1" xmlns="http://www.w3.org/2000/svg" xmlns:xlink="http://www.w3.org/1999/xlink" x="0px" y="0px" viewBox="0 0 256 256" enable-background="new 0 0 256 256" xml:space="preserve">
<metadata> Svg Vector Icons : http://www.onlinewebfonts.com/icon </metadata>
<g><g><path fill="#000000" d="M39.5,19.4c0-4.7,4.7-9.4,9.4-9.4h46c4.7,0,9.4,4.7,9.4,9.4v217.1c0,4.7-4.7,9.4-9.4,9.4h-46c-4.7,0-9.4-4.7-9.4-9.4V19.4z M151.6,19.4c0-4.7,4.7-9.4,9.4-9.4h46c4.7,0,9.4,4.7,9.4,9.4v217.1c0,4.7-4.7,9.4-9.4,9.4h-46c-4.7,0-9.4-4.7-9.4-9.4V19.4z"/><path fill="#000000" d="M39.5,19.4c0-4.7,4.7-9.4,9.4-9.4h46c4.7,0,9.4,4.7,9.4,9.4v217.1c0,4.7-4.7,9.4-9.4,9.4h-46c-4.7,0-9.4-4.7-9.4-9.4V19.4z M151.6,19.4c0-4.7,4.7-9.4,9.4-9.4h46c4.7,0,9.4,4.7,9.4,9.4v217.1c0,4.7-4.7,9.4-9.4,9.4h-46c-4.7,0-9.4-4.7-9.4-9.4V19.4z"/></g></g>
</svg>