<?xml version="1.0" encoding="utf-8"?>
<!-- Svg Vector Icons : http://www.onlinewebfonts.com/icon -->
<!DOCTYPE svg PUBLIC "-//W3C//DTD SVG 1.1//EN" "http://www.w3.org/Graphics/SVG/1.1/DTD/svg11.dtd">
<svg version="1.1" xmlns="http://www.w3.org/2000/svg" xmlns:xlink="http://www.w3.org/1999/xlink" x="0px" y="0px" viewBox="0 0 256 256" enable-background="new 0 0 256 256" xml:space="preserve">
<metadata> Svg Vector Icons : http://www.onlinewebfonts.com/icon </metadata>
<g><g><g><path fill="#000000" d="M120.8,10.3c-29.1,1.5-57,14.4-77.9,36.1C-0.9,91.9-1,163.7,42.7,209.5c15.4,16.1,34.4,27.3,55.6,32.8c10.5,2.7,18.4,3.7,29.7,3.7c19.7,0,36.5-4,53.6-12.7c41-21,66.1-63.7,64.3-109.5c-2.1-52.2-38-96.9-88.2-109.7C145.3,10.7,134.4,9.6,120.8,10.3z M137.4,102.9c19.1,11,35.4,20.7,36.2,21.6c1.1,1.2,1.5,2.2,1.5,3.8c0,3.8-0.9,4.8-7.7,8.8c-30.6,17.9-64.8,37.4-66.2,37.5c-2.4,0.4-5.4-1.3-6.5-3.7c-0.9-1.8-1-5-1-42.3c0-44.3-0.1-43.2,3.3-45C100.6,81.6,100.2,81.5,137.4,102.9z"/></g></g></g>
</svg>